<?xml version="1.0" encoding="UTF-8"?>
<svg xmlns="http://www.w3.org/2000/svg" xmlns:xlink="http://www.w3.org/1999/xlink" viewBox="0 0 48 48" width="48px" height="48px">
<g id="surface167036579">
<path style=" stroke:none;fill-rule:nonzero;fill:rgb(0%,43.137255%,100%);fill-opacity:1;" d="M 24 4 C 12.953125 4 4 12.953125 4 24 C 4 35.046875 12.953125 44 24 44 C 35.046875 44 44 35.046875 44 24 C 44 12.953125 35.046875 4 24 4 Z M 32 26 L 26 26 L 26 32 C 26 33.105469 25.105469 34 24 34 C 22.894531 34 22 33.105469 22 32 L 22 26 L 16 26 C 14.894531 26 14 25.105469 14 24 C 14 22.894531 14.894531 22 16 22 L 22 22 L 22 16 C 22 14.894531 22.894531 14 24 14 C 25.105469 14 26 14.894531 26 16 L 26 22 L 32 22 C 33.105469 22 34 22.894531 34 24 C 34 25.105469 33.105469 26 32 26 Z M 32 26 "/>
</g>
</svg>
